<svg xmlns="http://www.w3.org/2000/svg" width="1200" height="320" viewBox="0 0 1200 320" role="img">
  <defs>
    <linearGradient id="g" x1="0" y1="0" x2="1" y2="1">
      <stop offset="0%" stop-color="#00D9FF"/>
      <stop offset="50%" stop-color="#7C3AED"/>
      <stop offset="100%" stop-color="#00FF88"/>
    </linearGradient>
    <linearGradient id="bg" x1="0" y1="0" x2="1" y2="1">
      <stop offset="0%" stop-color="#050A14"/>
      <stop offset="100%" stop-color="#0A0E1A"/>
    </linearGradient>
    <filter id="glow"><feGaussianBlur stdDeviation="8" result="b"/><feMerge><feMergeNode in="b"/><feMergeNode in="SourceGraphic"/></feMerge></filter>
  </defs>
  <rect width="1200" height="320" rx="24" fill="url(#bg)" stroke="#1E2A44"/>
  <g opacity="0.08" stroke="#00D9FF" stroke-width="0.7">
    <path d="M0 40 H1200 M0 80 H1200 M0 120 H1200 M0 160 H1200 M0 200 H1200 M0 240 H1200 M0 280 H1200"/>
    <path d="M80 0 V320 M160 0 V320 M240 0 V320 M320 0 V320 M400 0 V320 M480 0 V320 M560 0 V320 M640 0 V320 M720 0 V320 M800 0 V320 M880 0 V320 M960 0 V320 M1040 0 V320 M1120 0 V320"/>
  </g>
  <g transform="translate(92,160)">
    <circle r="64" fill="none" stroke="url(#g)" stroke-width="2" opacity="0.9"/>
    <circle r="48" fill="none" stroke="#00D9FF" stroke-width="1" opacity="0.35" stroke-dasharray="6 8"/>
    <circle r="32" fill="url(#g)" opacity="0.95" filter="url(#glow)"/>
    <text x="0" y="10" text-anchor="middle" font-family="monospace" font-size="28" font-weight="900" fill="black">13</text>
  </g>
  <g font-family="Space Grotesk, Inter, sans-serif" fill="#E6EAF2">
    <text x="184" y="112" font-size="54" font-weight="900" letter-spacing="-1.5">KV-13</text>
    <text x="184" y="142" font-size="18" font-weight="600" fill="#00D9FF" letter-spacing="0.12em">AUTONOMOUS CODE INTELLIGENCE</text>
    <text x="184" y="170" font-size="13" fill="#8A94A8">Predict - Review - Fix - Modernize | 13.2B params | 32K context | 22+ languages</text>
    <g transform="translate(184,188)">
      <rect width="170" height="28" rx="14" fill="none" stroke="#00D9FF" opacity="0.9"/>
      <text x="85" y="18" text-anchor="middle" font-family="monospace" font-size="11" font-weight="700" fill="#00D9FF">MIT OPEN-SOURCE - LIVE</text>
      <rect x="184" width="150" height="28" rx="14" fill="#7C3AED"/>
      <text x="259" y="18" text-anchor="middle" font-family="monospace" font-size="11" font-weight="700" fill="white">kv-13.netlify.app</text>
    </g>
  </g>
  <g transform="translate(880,62)">
    <rect width="240" height="200" rx="16" fill="#101828" stroke="#1E2A44"/>
    <text x="20" y="28" font-family="monospace" font-size="10" fill="#8A94A8" letter-spacing="0.1em">BENCHMARK</text>
    <text x="20" y="52" font-size="11" fill="#E6EAF2">Defects4J F1</text><text x="220" y="52" text-anchor="end" font-family="monospace" font-weight="800" fill="#00FF88">94.7%</text>
    <rect x="20" y="60" width="200" height="6" rx="3" fill="#141F3A"/><rect x="20" y="60" width="189" height="6" rx="3" fill="#00FF88"/>
    <text x="20" y="88" font-size="11" fill="#E6EAF2">HumanEvalFix</text><text x="220" y="88" text-anchor="end" font-family="monospace" font-weight="800" fill="#00D9FF">83.4%</text>
    <rect x="20" y="96" width="200" height="6" rx="3" fill="#141F3A"/><rect x="20" y="96" width="167" height="6" rx="3" fill="#00D9FF"/>
    <text x="20" y="124" font-size="11" fill="#E6EAF2">Security F1</text><text x="220" y="124" text-anchor="end" font-family="monospace" font-weight="800" fill="#FFD21E">91.3%</text>
    <rect x="20" y="132" width="200" height="6" rx="3" fill="#141F3A"/><rect x="20" y="132" width="183" height="6" rx="3" fill="#FFD21E"/>
    <text x="20" y="164" font-family="monospace" font-size="9" fill="#8A94A8">7GB Q4 VRAM - 0.8s / 1K tokens</text>
    <text x="20" y="180" font-family="monospace" font-size="9" fill="#8A94A8">TRAINED ON 1.2T CODE TOKENS</text>
  </g>
</svg>